<?xml version="1.0" encoding="UTF-8"?>
<svg width="43px" height="43px" viewBox="0 0 43 43" version="1.1" xmlns="http://www.w3.org/2000/svg" xmlns:xlink="http://www.w3.org/1999/xlink">
    <!-- Generator: Sketch 50.2 (55047) - http://www.bohemiancoding.com/sketch -->
    <title>Combined Shape</title>
    <desc>Created with Sketch.</desc>
    <defs>
        <linearGradient x1="-65.1662035%" y1="185.293597%" x2="98.5206173%" y2="-64.3672788%" id="linearGradient-1">
            <stop stop-color="#46CBE2" offset="0%"></stop>
            <stop stop-color="#652AD7" offset="100%"></stop>
        </linearGradient>
    </defs>
    <g id="Page-1" stroke="none" stroke-width="1"  fill-rule="evenodd">
        <g id="Start-screen" transform="translate(-388.000000, -2957.000000)" fill="url(#linearGradient-1)">
            <g id="Group-4" transform="translate(0.000000, 2162.000000)">
                <g id="footer" transform="translate(0.000000, 772.000000)">
                    <path d="M409.521099,63.9082888 C398.979471,63.9082888 390.432304,55.3614597 390.432304,44.8198312 C390.432304,34.2778656 398.979471,25.7310365 409.521099,25.7310365 C420.062728,25.7310365 428.609894,34.2778656 428.609894,44.8198312 C428.609894,55.3614597 420.062728,63.9082888 409.521099,63.9082888 M409.521099,23.8194941 C397.924768,23.8194941 388.521099,33.2231634 388.521099,44.8198312 C388.521099,56.4138024 397.924768,65.8194941 409.521099,65.8194941 C421.11507,65.8194941 430.521099,56.4138024 430.521099,44.8198312 C430.521099,33.2231634 421.11507,23.8194941 409.521099,23.8194941 M406.342937,38.3700358 L406.342937,40.8013451 L403.882639,40.8013451 L403.882639,44.8195952 L406.342937,44.8195952 L406.342937,56.936367 L410.323098,56.936367 L410.323098,44.8195952 L414.319775,44.8195952 L414.954484,40.8013451 L410.323098,40.8013451 L410.323098,38.7876696 C410.323098,37.7353269 410.666575,36.7379272 412.167225,36.7379272 L415.178638,36.7379272 L415.178638,32.7294522 L410.909942,32.7294522 C407.321123,32.7294522 406.342937,35.09874 406.342937,38.3700358" id="Combined-Shape"></path>
                </g>
            </g>
        </g>
    </g>
</svg>
