<?xml version="1.0" encoding="UTF-8"?>
<svg width="151px" height="36px" viewBox="0 0 151 36" version="1.1" xmlns="http://www.w3.org/2000/svg" xmlns:xlink="http://www.w3.org/1999/xlink">
    <!-- Generator: Sketch 50.2 (55047) - http://www.bohemiancoding.com/sketch -->
    <title>GIVER Copy</title>
    <desc>Created with Sketch.</desc>
    <defs>
        <linearGradient x1="-65.1662035%" y1="185.293597%" x2="98.5206173%" y2="-64.3672788%" id="linearGradient-1">
            <stop stop-color="#46CBE2" offset="0%"></stop>
            <stop stop-color="#567ADC" offset="50.5866725%"></stop>
            <stop stop-color="#652AD7" offset="100%"></stop>
        </linearGradient>
    </defs>
    <g id="Page-1" stroke="none" stroke-width="1" fill="none" fill-rule="evenodd">
        <g id="Start-screen" transform="translate(-134.000000, -26.000000)" fill="url(#linearGradient-1)">
            <g id="topbar">
                <g id="logo" transform="translate(60.000000, 23.580595)">
                    <path d="M98.7482024,20.2627903 L106.443813,20.2627903 L106.443813,32.4189148 C103.04531,36.2095532 98.3397605,38.104844 92.3270237,38.104844 C87.2946244,38.104844 83.0710669,36.4382952 79.6562246,33.1051476 C76.2413822,29.772 74.5339866,25.5647813 74.5339866,20.4833651 C74.5339866,15.401949 76.2740596,11.1620528 79.7542578,7.76354938 C83.234456,4.36504598 87.4335054,2.66581976 92.351532,2.66581976 C97.2695586,2.66581976 101.542132,4.28335241 105.169381,7.51846623 L101.199034,13.2534121 C99.6631718,11.9136174 98.2498731,10.9904801 96.9590953,10.4839724 C95.6683176,9.97746468 94.2713576,9.72421462 92.7681734,9.72421462 C89.8598387,9.72421462 87.4090317,10.7127068 85.4156787,12.6897208 C83.4223258,14.6667348 82.4256642,17.2727596 82.4256642,20.5078734 C82.4256642,23.7429873 83.381479,26.3326734 85.2931371,28.2770094 C87.2047953,30.2213455 89.4840459,31.193499 92.1309572,31.193499 C94.7778685,31.193499 96.9835948,30.6869989 98.7482024,29.6739834 L98.7482024,20.2627903 Z M113.257125,3.45008586 L120.90372,3.45008586 L120.90372,37.7127109 L113.257125,37.7127109 L113.257125,3.45008586 Z M141.980871,25.2624866 L150.705831,3.45008586 L158.989642,3.45008586 L145.215969,37.7127109 L138.745773,37.7127109 L124.9721,3.45008586 L133.255911,3.45008586 L141.980871,25.2624866 Z M187.762404,3.45008586 L187.762404,10.2633976 L170.704617,10.2633976 L170.704617,17.3217924 L186.046822,17.3217924 L186.046822,23.8410043 L170.704617,23.8410043 L170.704617,30.9484158 L188.301587,30.9484158 L188.301587,37.7127109 L163.058022,37.7127109 L163.058022,3.45008586 L187.762404,3.45008586 Z M222.907329,14.8219442 C222.907329,20.3118344 220.73428,23.8573352 216.388117,25.4585532 L225.06406,37.7127109 L215.652867,37.7127109 L208.055289,26.7820022 L202.761493,26.7820022 L202.761493,37.7127109 L195.114899,37.7127109 L195.114899,3.45008586 L208.104306,3.45008586 C213.430807,3.45008586 217.229558,4.3487151 219.500673,6.14600056 C221.771788,7.94328602 222.907329,10.8352383 222.907329,14.8219442 Z M208.349389,20.164757 C210.963623,20.164757 212.744542,19.7399505 213.692202,18.8903246 C214.639862,18.0406988 215.113684,16.6927549 215.113684,14.8464526 C215.113684,13.0001502 214.623523,11.7338999 213.643185,11.0476637 C212.662848,10.3614274 210.947283,10.0183144 208.496439,10.0183144 L202.761493,10.0183144 L202.761493,20.164757 L208.349389,20.164757 Z" id="GIVER-Copy"></path>
                </g>
            </g>
        </g>
    </g>
</svg>