<?xml version="1.0" encoding="UTF-8"?>
<svg width="197px" height="138px" viewBox="0 0 197 138" version="1.1" xmlns="http://www.w3.org/2000/svg" xmlns:xlink="http://www.w3.org/1999/xlink">
    <!-- Generator: Sketch 50.2 (55047) - http://www.bohemiancoding.com/sketch -->
    <title>Fill 1</title>
    <desc>Created with Sketch.</desc>
    <defs>
        <linearGradient x1="6.61883948%" y1="88.1429433%" x2="205.279067%" y2="-145.166798%" id="linearGradient-1">
            <stop stop-color="#46CBE2" offset="0%"></stop>
            <stop stop-color="#652AD7" offset="100%"></stop>
        </linearGradient>
    </defs>
    <g id="Page-1" stroke="none" stroke-width="1" fill="none" fill-rule="evenodd">
        <g id="Start-screen" transform="translate(-493.000000, -1395.000000)" fill="url(#linearGradient-1)">
            <g id="ABOUT" transform="translate(309.000000, 892.000000)">
                <g id="2" transform="translate(184.000000, 475.000000)">
                    <path d="M77.3728243,35.068864 C70.3878603,35.068864 63.8187557,37.7900873 58.8757608,42.7309793 C53.9427549,47.6639852 51.2262632,54.2330898 51.2262632,61.2285685 C51.2262632,68.2240472 53.9427549,74.7931518 58.8757608,79.725632 L98.1026998,118.953623 L137.327536,79.725632 C147.526866,69.5263019 147.526866,52.9308352 137.327536,42.7309793 C132.386118,37.7900873 125.817014,35.068864 118.829947,35.068864 C111.843406,35.068864 105.274301,37.7900873 100.332883,42.7309793 C99.7451074,43.3182294 98.9323155,43.6552279 98.1026998,43.6552279 C97.259415,43.6552279 96.4666011,43.327167 95.8704135,42.731505 C90.9316244,37.7900873 84.3619941,35.068864 77.3728243,35.068864 M172.36907,165.402634 C170.629926,165.402634 169.214638,163.987871 169.214638,162.248202 L169.214638,160.471731 C169.214638,151.934786 173.74335,143.869955 181.032717,139.424309 C186.456237,136.117939 189.825696,130.116632 189.825696,123.762554 L189.825696,94.5940472 C189.825696,90.8350157 186.766949,87.7762682 183.007391,87.7762682 C179.247834,87.7762682 176.189087,90.8350157 176.189087,94.5940472 L176.189087,113.192578 C176.189087,114.931722 174.774324,116.34701 173.034655,116.34701 C171.294985,116.34701 169.880223,114.931722 169.880223,113.192578 L169.880223,94.5940472 C169.880223,90.8187178 171.517899,87.2200367 174.373711,84.7206751 L174.732791,84.4068091 L174.732791,49.4814638 C174.732791,45.7219066 171.673517,42.663159 167.912909,42.663159 C164.178587,42.663159 161.120891,45.7024542 161.096707,49.4378275 L161.096707,90.9937888 L161.093552,91.007458 L161.092501,91.114183 C161.083563,92.8396573 159.669326,94.2449567 157.940172,94.2449567 C156.200503,94.2449567 154.78574,92.830194 154.78574,91.0905247 L154.78574,49.4814638 L154.787843,49.3947169 L154.787843,45.1935392 C154.787843,43.371329 154.078621,41.6600496 152.791087,40.3751443 C151.503553,39.0870846 149.790171,38.3773374 147.965332,38.3773374 C146.715651,38.3773374 145.49436,38.7180161 144.433946,39.3620459 L143.408755,39.9839948 L144.160036,40.9187581 C154.544952,53.8508778 153.52607,72.4520376 141.790006,84.1865246 L141.147553,84.8279258 L141.147553,91.0884218 C141.147553,92.828091 139.732265,94.2428538 137.993121,94.2428538 C136.854371,94.2428538 135.799214,93.6230079 135.240353,92.6262074 L134.561099,91.4149055 L101.286047,124.690483 L101.318643,125.167854 C101.913779,133.75632 106.733752,141.416859 114.212384,145.65957 C115.198144,146.217904 115.811155,147.268856 115.811155,148.402348 L115.811155,160.092147 C115.811155,161.831291 114.396393,163.246579 112.656723,163.246579 C110.91758,163.246579 109.502291,161.831291 109.502291,160.092147 L109.502291,150.184077 L109.037538,149.871262 C104.923633,147.102196 101.459015,143.33633 99.0195881,138.98006 L98.1021741,137.340807 L97.1847601,138.98006 C94.7495386,143.334227 91.2843951,147.100093 87.1647069,149.871262 L86.7004797,150.183551 L86.7004797,160.092147 C86.7004797,161.831291 85.2851912,163.246579 83.5460477,163.246579 C81.8063784,163.246579 80.3916157,161.831291 80.3916157,160.092147 L80.3916157,148.402348 C80.3916157,147.268856 81.0041012,146.217904 81.990387,145.660095 C89.4721739,141.416859 94.2937232,133.756846 94.8878079,125.169957 L94.9209294,124.692586 L61.6400947,91.413854 L60.9618918,92.6272589 C60.4051346,93.6240594 59.3505028,94.2428538 58.2101756,94.2428538 C56.4705064,94.2428538 55.0557436,92.828091 55.0557436,91.0884218 L55.0557436,84.8300287 L54.4169712,84.1886275 C42.6798554,72.4536148 41.6604482,53.8514036 52.045364,40.9187581 L52.7971703,39.9829433 L51.7704027,39.3609945 C50.7078849,38.7174903 49.4865939,38.3773374 48.2395418,38.3773374 C46.4141772,38.3773374 44.7007949,39.0855074 43.4153638,40.3709384 C42.1294071,41.6574209 41.4212371,43.3702775 41.4212371,45.1935392 L41.4212371,90.9243913 L41.4175569,91.1231205 C41.4080936,92.8412345 39.9938566,94.2449567 38.2647021,94.2449567 C36.5250329,94.2449567 35.1102701,92.830194 35.1102701,91.0905247 L35.1102701,49.4814638 C35.1102701,45.7219066 32.0515226,42.663159 28.2924911,42.663159 C24.5329339,42.663159 21.4741864,45.7219066 21.4741864,49.4814638 L21.4741864,84.4062833 L21.8327401,84.7201493 C24.6880268,87.2210882 26.325177,90.8197693 26.325177,94.5940472 L26.325177,113.192578 C26.325177,114.931722 24.9098885,116.34701 23.170745,116.34701 C21.4310758,116.34701 20.016313,114.931722 20.016313,113.192578 L20.016313,94.5940472 C20.016313,90.8350157 16.9575655,87.7762682 13.1980083,87.7762682 C9.43845108,87.7762682 6.37970352,90.8350157 6.37970352,94.5940472 L6.37970352,123.762554 C6.37970352,130.11558 9.74916263,136.116887 15.172157,139.424309 C22.4620493,143.869955 26.9902364,151.934786 26.9902364,160.471731 L26.9902364,162.248202 C26.9902364,163.987871 25.5754737,165.402634 23.8358044,165.402634 C22.0961352,165.402634 20.6813724,163.987871 20.6813724,162.248202 L20.6813724,160.471731 C20.6813724,154.119756 17.3124391,148.118975 11.8894447,144.810502 C4.5995524,140.366958 0.0708395342,132.301602 0.0708395342,123.762554 L0.0708395342,94.5940472 C0.0708395342,87.356203 5.95963833,81.4674042 13.1980083,81.4674042 C13.4845359,81.4674042 13.7673833,81.4810734 14.0502307,81.4984228 L15.1653224,81.5662431 L15.1653224,49.4814638 C15.1653224,42.2430938 21.0541212,36.354295 28.2924911,36.354295 C30.9075152,36.354295 33.4352667,37.1260794 35.603413,38.5860557 L36.5071578,39.194861 L37.0833673,38.269561 C37.6159406,37.4136584 38.2457755,36.6197931 38.954997,35.9105716 C41.4312261,33.4327653 44.728659,32.0684734 48.2395418,32.0684734 C51.3203704,32.0684734 54.3170808,33.1604326 56.6771217,35.1429931 L57.3158942,35.6792466 L57.9835823,35.1797948 C63.6010999,30.9801944 70.3058451,28.76 77.3728243,28.76 C84.7552466,28.76 91.6986772,31.1621 97.4528869,35.706585 L98.1037513,36.2207574 L98.7551415,35.7076365 C104.428387,31.2383321 111.556878,28.7768236 118.827844,28.7768236 C125.885885,28.7768236 132.588002,30.9896577 138.208674,35.1766404 L138.878465,35.6750407 L139.51566,35.1361585 C141.855197,33.1578039 144.856114,32.0684734 147.965332,32.0684734 C151.475163,32.0684734 154.772071,33.4327653 157.247774,35.9105716 C157.950687,36.609804 158.582624,37.4036694 159.125187,38.269561 L159.702448,39.1911809 L160.603564,38.5844784 C162.770659,37.1255536 165.297884,36.354295 167.912909,36.354295 C175.150753,36.354295 181.040077,42.2430938 181.040077,49.4814638 L181.040077,81.5662431 L182.155695,81.4984228 C182.438016,81.4810734 182.720864,81.4674042 183.007391,81.4674042 C190.245236,81.4674042 196.13456,87.356203 196.13456,94.5940472 L196.13456,123.762554 C196.13456,132.301602 191.605847,140.366958 184.316481,144.810502 C178.892961,148.118975 175.523502,154.119756 175.523502,160.471731 L175.523502,162.248202 C175.523502,163.987871 174.108739,165.402634 172.36907,165.402634" id="Fill-1"></path>
                </g>
            </g>
        </g>
    </g>
</svg>