<?xml version="1.0" encoding="UTF-8"?>
<svg width="218px" height="218px" viewBox="0 0 218 218" version="1.1" xmlns="http://www.w3.org/2000/svg" xmlns:xlink="http://www.w3.org/1999/xlink">
    <!-- Generator: Sketch 50.2 (55047) - http://www.bohemiancoding.com/sketch -->
    <title>Fill 4</title>
    <desc>Created with Sketch.</desc>
    <defs>
        <linearGradient x1="-65.1662035%" y1="185.293597%" x2="98.5206173%" y2="-64.3672788%" id="linearGradient-1">
            <stop stop-color="#46CBE2" offset="0%"></stop>
            <stop stop-color="#652AD7" offset="100%"></stop>
        </linearGradient>
    </defs>
    <g id="Page-1" stroke="none" stroke-width="1" fill="none" fill-rule="evenodd">
        <g id="Start-screen" transform="translate(-1209.000000, -1051.000000)" fill="url(#linearGradient-1)">
            <g id="ABOUT" transform="translate(309.000000, 892.000000)">
                <g id="1" transform="translate(111.000000, 156.000000)">
                    <path d="M944.947157,72.2351703 C940.976405,72.2351703 937.724872,68.9836371 937.724872,65.0128848 C937.724872,61.0194074 940.976405,57.7678742 944.947157,57.7678742 C948.940635,57.7678742 952.192168,61.0194074 952.192168,65.0128848 C952.192168,68.9836371 948.940635,72.2351703 944.947157,72.2351703 M944.947157,50.5234778 C936.983542,50.5234778 930.480475,57.0265443 930.480475,65.0128848 C930.480475,72.9765002 936.983542,79.4795667 944.947157,79.4795667 C952.933498,79.4795667 959.436564,72.9765002 959.436564,65.0128848 C959.436564,57.0265443 952.933498,50.5234778 944.947157,50.5234778 M944.947157,108.413115 C921.010861,108.413115 901.547111,88.9493656 901.547111,65.0124549 C901.547111,41.0583468 921.028672,21.589684 944.947157,21.589684 C968.884068,21.589684 988.369928,41.0583468 988.369928,65.0124549 C988.369928,88.9493656 968.901879,108.413115 944.947157,108.413115 Z M916.013793,151.835886 C916.013793,175.06709 902.215967,195.09651 882.413183,204.298951 L866.567026,163.549144 C870.207343,160.916717 872.590408,156.65668 872.590408,151.835886 C872.590408,147.25954 870.419853,143.216927 867.100759,140.566688 L884.886535,100.553298 C903.364506,110.235423 916.013793,129.559751 916.013793,151.835886 Z M858.12434,209.725953 C834.892522,209.725953 814.863716,195.928126 805.660661,176.125343 L846.429508,160.261374 C849.042895,163.901691 853.302932,166.303182 858.12434,166.303182 C858.707209,166.303182 859.254454,166.198769 859.801699,166.126295 L875.701906,206.967002 C870.153294,208.753687 864.256435,209.725953 858.12434,209.725953 Z M851.394637,154.432076 C851.09614,153.618271 850.901441,152.754103 850.901441,151.835886 C850.901441,147.843023 854.130863,144.591489 858.12434,144.591489 C859.13223,144.591489 860.104496,144.804 860.968664,145.174972 C861.004902,145.192783 861.022713,145.229021 861.058951,145.247447 L861.1087,145.247447 C863.618289,146.395986 865.368737,148.901276 865.368737,151.835886 C865.368737,155.829363 862.117204,159.058171 858.12434,159.058171 C855.066892,159.058171 852.471316,157.154176 851.413063,154.486125 L851.413063,154.450502 L851.394637,154.432076 Z M800.234273,151.835886 C800.234273,119.913249 826.223814,93.9464329 858.12434,93.9464329 C865.210275,93.9464329 871.975602,95.2896711 878.261244,97.6186878 L860.493894,137.595841 C859.733524,137.473002 858.937531,137.369204 858.12434,137.369204 C850.142299,137.369204 843.657044,143.849545 843.657044,151.835886 C843.657044,152.401557 843.760843,152.948802 843.833318,153.513859 L802.99261,169.396254 C801.224351,163.847642 800.234273,157.963681 800.234273,151.835886 Z M1002.83722,61.3905638 L995.42024,61.3905638 C994.624861,50.1342642 990.156613,39.927619 983.192288,31.8872296 L987.312289,27.7721422 C988.722474,26.3607286 988.722474,24.06365 987.312289,22.6479371 C985.896576,21.2371377 983.617309,21.2371377 982.20651,22.6479371 L978.073611,26.767938 C970.050419,19.8036132 959.825962,15.3353653 948.569048,14.5399865 L948.569048,7.12300206 C948.569048,5.1244208 946.964164,3.50111095 944.964969,3.50111095 C942.970687,3.50111095 941.347377,5.1244208 941.347377,7.12300206 L941.347377,14.5399865 C930.091692,15.3353653 919.880133,19.8036132 911.844043,26.767938 L907.728955,22.6479371 C906.313242,21.2371377 904.020463,21.2371377 902.605364,22.6479371 C901.194565,24.06365 901.194565,26.3607286 902.605364,27.7721422 L906.720452,31.8872296 C899.760426,39.927619 895.292179,50.1342642 894.4968,61.3905638 L887.079815,61.3905638 C885.081234,61.3905638 883.45731,62.996062 883.45731,65.0124549 C883.45731,67.0067368 885.081234,68.6128493 887.079815,68.6128493 L894.4968,68.6128493 C895.292179,79.8685346 899.760426,90.0936056 906.720452,98.1161834 L902.605364,102.249082 C902.198155,102.656292 901.935895,103.131062 901.777433,103.646984 C897.57206,99.8297795 892.909113,96.5604347 887.821759,93.9464329 L890.381712,88.1896099 C891.195517,86.348876 890.363286,84.2145583 888.545278,83.4007537 C886.709457,82.6041465 884.588652,83.4185653 883.774233,85.236574 L881.196469,91.0161222 C874.023933,88.2755968 866.268528,86.7014223 858.12434,86.7014223 C851.078328,86.7014223 844.313002,87.8683874 837.949971,89.9529555 L836.186011,85.3944214 C835.462493,83.5401753 833.359499,82.6041465 831.500953,83.3460906 C829.628896,84.0517974 828.711293,86.1541771 829.434811,88.026849 L831.220882,92.6031947 C817.866502,98.699666 806.931425,109.136633 800.234273,122.138467 L794.47745,119.578514 C792.658827,118.782521 790.52021,119.59694 789.706406,121.414948 C788.896901,123.250769 789.706406,125.39 791.546526,126.203805 L797.303349,128.763143 C794.581249,135.954105 793.011988,143.709509 793.011988,151.835886 C793.011988,158.881898 794.178953,165.647225 796.24571,172.009641 L791.704987,173.792027 C789.832929,174.497734 788.914712,176.600727 789.63823,178.472171 C790.203901,179.905695 791.560038,180.769864 793.011988,180.769864 C793.450521,180.769864 793.893968,180.702303 794.318375,180.526029 L798.909461,178.757156 C805.005318,192.093724 815.447199,203.028802 828.449033,209.725953 L825.884166,215.482776 C825.075275,217.318596 825.884166,219.457827 827.7249,220.272246 C828.199671,220.466331 828.692867,220.570129 829.190362,220.570129 C830.564924,220.570129 831.890351,219.774751 832.491645,218.413087 L835.055897,212.656263 C842.246245,215.39249 849.99735,216.947624 858.12434,216.947624 C865.174038,216.947624 871.95779,215.781273 878.315907,213.714517 L880.084167,218.255239 C880.649223,219.688764 882.005974,220.570129 883.45731,220.570129 C883.896457,220.570129 884.33929,220.498269 884.764925,220.321996 C886.618557,219.597863 887.554586,217.513295 886.831067,215.641237 L885.044997,211.064277 C898.399377,204.973334 909.320941,194.513027 916.013793,181.511194 L921.788428,184.075446 C922.268112,184.287956 922.760694,184.392369 923.25819,184.392369 C924.633366,184.392369 925.958178,183.596376 926.559473,182.234712 C927.373891,180.416703 926.541661,178.278086 924.723652,177.468581 L918.944104,174.904329 C921.684629,167.713981 923.25819,159.962876 923.25819,151.835886 C923.25819,144.786188 922.091839,138.002436 920.006656,131.644319 L924.565191,129.87606 C926.419437,129.152541 927.337654,127.067359 926.631947,125.195301 C925.908429,123.341055 923.823246,122.405026 921.946889,123.14697 L917.357032,124.91523 C914.548331,118.764709 910.822027,113.147922 906.313242,108.200604 C906.82855,108.024331 907.321746,107.762071 907.711144,107.354862 L911.844043,103.239774 C919.866621,110.217611 930.091692,114.668048 941.347377,115.481852 L941.347377,122.879797 C941.347377,124.896804 942.952875,126.502302 944.947157,126.502302 C946.964164,126.502302 948.569048,124.896804 948.569048,122.879797 L948.569048,115.463427 C959.825962,114.668048 970.050419,110.1998 978.073611,103.239774 L982.41902,107.567372 C983.106301,108.272465 984.04233,108.62624 984.959933,108.62624 C985.896576,108.62624 986.814794,108.272465 987.519886,107.567372 C988.935599,106.152274 988.935599,103.873006 987.519886,102.462207 L983.192288,98.1161834 C990.156613,90.0936056 994.624861,79.8685346 995.42024,68.6128493 L1002.83722,68.6128493 C1004.83581,68.6128493 1006.45912,67.0067368 1006.45912,65.0124549 C1006.45912,62.996062 1004.85423,61.3905638 1002.83722,61.3905638 Z" id="Fill-4"></path>
                </g>
            </g>
        </g>
    </g>
</svg>