<?xml version="1.0" encoding="UTF-8"?>
<svg width="42px" height="43px" viewBox="0 0 42 43" version="1.1" xmlns="http://www.w3.org/2000/svg" xmlns:xlink="http://www.w3.org/1999/xlink">
    <!-- Generator: Sketch 50.2 (55047) - http://www.bohemiancoding.com/sketch -->
    <title>Combined Shape</title>
    <desc>Created with Sketch.</desc>
    <defs>
        <linearGradient x1="-65.1662035%" y1="185.293597%" x2="98.5206173%" y2="-64.3672788%" id="linearGradient-1">
            <stop stop-color="#46CBE2" offset="0%"></stop>
            <stop stop-color="#652AD7" offset="100%"></stop>
        </linearGradient>
    </defs>
    <g id="Page-1" stroke="none" stroke-width="1" fill="none" fill-rule="evenodd">
        <g id="Start-screen" transform="translate(-451.000000, -2957.000000)" fill="url(#linearGradient-1)">
            <g id="Group-4" transform="translate(0.000000, 2162.000000)">
                <g id="footer" transform="translate(0.000000, 772.000000)">
                    <path d="M472.002099,63.9082888 C461.460471,63.9082888 452.913304,55.3614597 452.913304,44.8198312 C452.913304,34.2778656 461.460471,25.7310365 472.002099,25.7310365 C482.543391,25.7310365 491.090894,34.2778656 491.090894,44.8198312 C491.090894,55.3614597 482.543391,63.9082888 472.002099,63.9082888 M472.002099,23.8194941 C460.405768,23.8194941 451.002099,33.2231634 451.002099,44.8198312 C451.002099,56.4138024 460.405768,65.8194941 472.002099,65.8194941 C483.59607,65.8194941 493.002099,56.4138024 493.002099,44.8198312 C493.002099,33.2231634 483.59607,23.8194941 472.002099,23.8194941 M480.677454,49.2093675 C480.677454,51.5762958 478.758833,53.4949167 476.391905,53.4949167 L467.612158,53.4949167 C465.245567,53.4949167 463.326272,51.5762958 463.326272,49.2093675 L463.326272,40.4299578 C463.326272,38.0630295 465.245567,36.1440716 467.612158,36.1440716 L476.391905,36.1440716 C478.758833,36.1440716 480.677454,38.0630295 480.677454,40.4299578 L480.677454,49.2093675 Z M476.391905,33.9588257 L467.612158,33.9588257 C464.044238,33.9588257 461.141363,36.8620376 461.141363,40.4299578 L461.141363,49.2093675 C461.141363,52.7772877 464.044238,55.6801625 467.612158,55.6801625 L476.391905,55.6801625 C479.959825,55.6801625 482.862363,52.7772877 482.862363,49.2093675 L482.862363,40.4299578 C482.862363,36.8620376 479.959825,33.9588257 476.391905,33.9588257 Z M472.002099,48.2523154 C470.106062,48.2523154 468.569345,46.7155985 468.569345,44.8195615 C468.569345,42.9238616 470.106062,41.3868076 472.002099,41.3868076 C473.897799,41.3868076 475.434853,42.9238616 475.434853,44.8195615 C475.434853,46.7152614 473.897799,48.2523154 472.002099,48.2523154 M472.002099,39.2015618 C468.904396,39.2015618 466.384099,41.7218584 466.384099,44.8195615 C466.384099,47.9172646 468.904396,50.4375612 472.002099,50.4375612 C475.099465,50.4375612 477.619762,47.9172646 477.619762,44.8195615 C477.619762,41.7218584 475.099465,39.2015618 472.002099,39.2015618 M477.630986,37.8978299 C476.887403,37.8978299 476.284716,38.5005169 476.284716,39.2441005 C476.284716,39.987347 476.887403,40.5900339 477.630986,40.5900339 C478.374233,40.5900339 478.97692,39.987347 478.97692,39.2441005 C478.97692,38.5005169 478.374233,37.8978299 477.630986,37.8978299" id="Combined-Shape"></path>
                </g>
            </g>
        </g>
    </g>
</svg>